<svg width="20" height="19" viewBox="0 0 20 19" fill="none" xmlns="http://www.w3.org/2000/svg">
<path d="M18.2901 6.82332H15.6353L15.0695 3.42805C14.9555 2.91435 14.7051 2.44123 14.345 2.05895C13.9848 1.67667 13.5283 1.39949 13.024 1.25683C12.5172 1.09308 11.9894 1.00471 11.4572 0.994537H8.20752C7.67531 1.00471 7.14745 1.09308 6.64072 1.25683C6.13636 1.39949 5.67986 1.67667 5.31971 2.05895C4.95955 2.44123 4.70918 2.91435 4.59518 3.42805L4.02939 6.82332H1.37454C1.26028 6.82262 1.14747 6.84905 1.04531 6.90044C0.943143 6.95184 0.854511 7.02676 0.786634 7.11908C0.718756 7.21141 0.673553 7.31854 0.654709 7.43174C0.635864 7.54494 0.64391 7.66101 0.678191 7.77049L3.40558 16.9508C3.54443 17.3943 3.82044 17.7818 4.19352 18.0569C4.56659 18.3321 5.01729 18.4806 5.48013 18.4809H14.1846C14.6449 18.4775 15.0924 18.3276 15.4625 18.0526C15.8327 17.7777 16.1065 17.3919 16.2446 16.9508L18.972 7.77049C19.0059 7.66218 19.0142 7.5474 18.9961 7.43531C18.978 7.32323 18.9341 7.21694 18.8679 7.12492C18.8016 7.03291 18.7149 6.95772 18.6146 6.90536C18.5143 6.85299 18.4032 6.8249 18.2901 6.82332ZM5.50915 6.82332L6.03141 3.6612C6.08867 3.40302 6.22148 3.16794 6.41278 2.98617C6.60409 2.8044 6.84514 2.68425 7.10496 2.64117C7.46184 2.52751 7.83323 2.46485 8.20752 2.45173H11.4572C11.8358 2.46339 12.2116 2.52605 12.5742 2.64117C12.8341 2.68425 13.0751 2.8044 13.2664 2.98617C13.4577 3.16794 13.5905 3.40302 13.6478 3.6612L14.1555 6.82332H5.45112H5.50915Z" fill="white"/>
</svg>
