<svg width="20" height="18" viewBox="0 0 20 18" fill="none" xmlns="http://www.w3.org/2000/svg">
<path d="M17.1533 1.36423C14.673 -0.330211 11.6101 0.460528 9.95654 2.39972C8.30296 0.460528 5.2401 -0.339625 2.75974 1.36423C1.4444 2.26793 0.617615 3.79293 0.561243 5.40264C0.429709 9.0551 3.66169 11.9827 8.59422 16.473L8.68817 16.5577C9.40221 17.2072 10.5015 17.2072 11.2155 16.5483L11.3189 16.4542C16.2514 11.9733 19.474 9.04569 19.3518 5.39323C19.2955 3.79293 18.4687 2.26793 17.1533 1.36423ZM10.0505 15.0704L9.95654 15.1645L9.86258 15.0704C5.39042 11.0131 2.4403 8.33026 2.4403 5.60974C2.4403 3.72703 3.8496 2.315 5.72865 2.315C7.17553 2.315 8.58482 3.24694 9.08277 4.5366H10.8397C11.3282 3.24694 12.7375 2.315 14.1844 2.315C16.0635 2.315 17.4728 3.72703 17.4728 5.60974C17.4728 8.33026 14.5226 11.0131 10.0505 15.0704Z" fill="white"/>
</svg>
