<svg width="19" height="17" viewBox="0 0 19 17" fill="none" xmlns="http://www.w3.org/2000/svg">
<path d="M16.596 0.932558C14.1156 -0.761882 11.0527 0.0288565 9.39916 1.96805C7.74559 0.0288565 4.68273 -0.771296 2.20237 0.932558C0.887028 1.83626 0.0602421 3.36125 0.00387037 4.97097C-0.127664 8.62343 3.10432 11.551 8.03685 16.0413L8.1308 16.126C8.84484 16.7756 9.94409 16.7756 10.6581 16.1166L10.7615 16.0225C15.694 11.5416 18.9166 8.61402 18.7945 4.96156C18.7381 3.36126 17.9113 1.83626 16.596 0.932558ZM9.49312 14.6387L9.39916 14.7328L9.30521 14.6387C4.83305 10.5815 1.88293 7.89859 1.88293 5.17807C1.88293 3.29536 3.29222 1.88333 5.17128 1.88333C6.61816 1.88333 8.02745 2.81527 8.5254 4.10493H10.2823C10.7709 2.81527 12.1802 1.88333 13.627 1.88333C15.5061 1.88333 16.9154 3.29536 16.9154 5.17807C16.9154 7.89859 13.9653 10.5815 9.49312 14.6387Z" fill="#488A74"/>
</svg>
