<svg width="161" height="38" viewBox="0 0 161 38" fill="none" xmlns="http://www.w3.org/2000/svg">
<path d="M17 5.27778L29.75 14.7778V33.7778H4.25V14.7778L17 5.27778ZM17 0L0 12.6667V38H34V12.6667L17 0ZM15.9375 13.7222V20.0556H14.875V13.7222H12.75V20.0556H11.6875V13.7222H9.5625V20.0556C9.5625 21.8078 10.9863 23.2222 12.75 23.2222V31.6667H14.875V23.2222C16.6387 23.2222 18.0625 21.8078 18.0625 20.0556V13.7222H15.9375ZM19.125 17.9444V24.2778H21.25V31.6667H23.375V13.7222C21.0375 13.7222 19.125 15.6222 19.125 17.9444Z" fill="#488A74"/>
<path d="M59.3244 11.68V28H56.1324V22.984L56.3484 16.72L52.1484 23.392H49.7484L45.5004 16.624L45.7644 22.984V28H42.5724V11.68H45.5964L50.9484 20.056L56.3004 11.68H59.3244ZM69.4624 26.032C70.2304 26.032 70.9344 25.88 71.5744 25.576C72.2304 25.272 72.9024 24.832 73.5904 24.256L74.5504 26.248C73.7824 26.952 72.9904 27.48 72.1744 27.832C71.3744 28.184 70.4624 28.36 69.4384 28.36C67.9664 28.36 66.7344 28.056 65.7424 27.448C64.7504 26.824 64.0064 25.992 63.5104 24.952C63.0304 23.896 62.7904 22.712 62.7904 21.4C62.7904 20.056 63.0384 18.864 63.5344 17.824C64.0304 16.768 64.7744 15.936 65.7664 15.328C66.7584 14.72 67.9824 14.416 69.4384 14.416C71.0864 14.416 72.3744 14.88 73.3024 15.808C74.2464 16.72 74.7264 18.008 74.7424 19.672C74.7424 20.2 74.6544 20.792 74.4784 21.448H65.9104C65.9264 22.92 66.2224 24.056 66.7984 24.856C67.3744 25.64 68.2624 26.032 69.4624 26.032ZM69.2944 16.576C68.4464 16.576 67.7584 16.824 67.2304 17.32C66.7024 17.8 66.3344 18.464 66.1264 19.312H71.6464V19.024C71.6464 18.24 71.4224 17.64 70.9744 17.224C70.5424 16.792 69.9824 16.576 69.2944 16.576ZM89.5969 27.904C88.8929 28.112 88.1649 28.224 87.4129 28.24C86.7089 28.24 86.1169 28.12 85.6369 27.88C85.1729 27.64 84.8449 27.232 84.6529 26.656C83.9489 27.184 83.2609 27.584 82.5889 27.856C81.9169 28.128 81.2049 28.264 80.4529 28.264C79.3969 28.264 78.5329 27.96 77.8609 27.352C77.1889 26.728 76.8529 25.96 76.8529 25.048C76.8529 24.136 77.0929 23.392 77.5729 22.816C78.0529 22.24 78.7169 21.776 79.5649 21.424C80.4289 21.072 81.6449 20.672 83.2129 20.224L84.4609 19.864V19.336C84.4609 18.52 84.2849 17.896 83.9329 17.464C83.5969 17.016 83.0769 16.792 82.3729 16.792C81.6369 16.792 80.9089 16.944 80.1889 17.248C79.4849 17.552 78.6769 18.088 77.7649 18.856L76.9249 16.768C78.9249 15.2 81.0369 14.416 83.2609 14.416C84.7169 14.416 85.8049 14.808 86.5249 15.592C87.2609 16.36 87.6289 17.664 87.6289 19.504V24.928C87.6289 25.28 87.6929 25.536 87.8209 25.696C87.9489 25.84 88.1649 25.912 88.4689 25.912C88.7729 25.912 89.0929 25.848 89.4289 25.72L89.5969 27.904ZM80.0209 24.688C80.0209 25.52 80.4849 25.936 81.4129 25.936C81.8769 25.936 82.3489 25.832 82.8289 25.624C83.3089 25.416 83.8529 25.104 84.4609 24.688V21.712L83.5969 22C82.2369 22.448 81.3009 22.864 80.7889 23.248C80.2769 23.632 80.0209 24.112 80.0209 24.688ZM91.9474 8.8H95.1154V28H91.9474V8.8ZM116.371 11.68V28H113.179V22.984L113.395 16.72L109.195 23.392H106.795L102.547 16.624L102.811 22.984V28H99.6193V11.68H102.643L107.995 20.056L113.347 11.68H116.371ZM132.581 27.904C131.877 28.112 131.149 28.224 130.397 28.24C129.693 28.24 129.101 28.12 128.621 27.88C128.157 27.64 127.829 27.232 127.637 26.656C126.933 27.184 126.245 27.584 125.573 27.856C124.901 28.128 124.189 28.264 123.437 28.264C122.381 28.264 121.517 27.96 120.845 27.352C120.173 26.728 119.837 25.96 119.837 25.048C119.837 24.136 120.077 23.392 120.557 22.816C121.037 22.24 121.701 21.776 122.549 21.424C123.413 21.072 124.629 20.672 126.197 20.224L127.445 19.864V19.336C127.445 18.52 127.269 17.896 126.917 17.464C126.581 17.016 126.061 16.792 125.357 16.792C124.621 16.792 123.893 16.944 123.173 17.248C122.469 17.552 121.661 18.088 120.749 18.856L119.909 16.768C121.909 15.2 124.021 14.416 126.245 14.416C127.701 14.416 128.789 14.808 129.509 15.592C130.245 16.36 130.613 17.664 130.613 19.504V24.928C130.613 25.28 130.677 25.536 130.805 25.696C130.933 25.84 131.149 25.912 131.453 25.912C131.757 25.912 132.077 25.848 132.413 25.72L132.581 27.904ZM123.005 24.688C123.005 25.52 123.469 25.936 124.397 25.936C124.861 25.936 125.333 25.832 125.813 25.624C126.293 25.416 126.837 25.104 127.445 24.688V21.712L126.581 22C125.221 22.448 124.285 22.864 123.773 23.248C123.261 23.632 123.005 24.112 123.005 24.688ZM143.116 27.304C142.652 27.608 142.14 27.84 141.58 28C141.036 28.16 140.492 28.24 139.948 28.24C138.428 28.24 137.292 27.872 136.54 27.136C135.788 26.384 135.412 25.312 135.412 23.92V17.056H133.372V15.712L135.748 14.896L136.66 11.512H138.58V14.776H142.42V17.056H138.58V23.248C138.58 24.192 138.724 24.872 139.012 25.288C139.316 25.688 139.78 25.888 140.404 25.888C141.076 25.888 141.812 25.688 142.612 25.288L143.116 27.304ZM151.517 26.032C152.285 26.032 152.989 25.88 153.629 25.576C154.285 25.272 154.957 24.832 155.645 24.256L156.605 26.248C155.837 26.952 155.045 27.48 154.229 27.832C153.429 28.184 152.517 28.36 151.493 28.36C150.021 28.36 148.789 28.056 147.797 27.448C146.805 26.824 146.061 25.992 145.565 24.952C145.085 23.896 144.845 22.712 144.845 21.4C144.845 20.056 145.093 18.864 145.589 17.824C146.085 16.768 146.829 15.936 147.821 15.328C148.813 14.72 150.037 14.416 151.493 14.416C153.141 14.416 154.429 14.88 155.357 15.808C156.301 16.72 156.781 18.008 156.797 19.672C156.797 20.2 156.709 20.792 156.533 21.448H147.965C147.981 22.92 148.277 24.056 148.853 24.856C149.429 25.64 150.317 26.032 151.517 26.032ZM151.349 16.576C150.501 16.576 149.813 16.824 149.285 17.32C148.757 17.8 148.389 18.464 148.181 19.312H153.701V19.024C153.701 18.24 153.477 17.64 153.029 17.224C152.597 16.792 152.037 16.576 151.349 16.576Z" fill="black"/>
</svg>
